<?xml version="1.0" encoding="UTF-8" standalone="no"?>
<!-- Created with Inkscape (http://www.inkscape.org/) -->

<svg
   xmlns:dc="http://purl.org/dc/elements/1.1/"
   xmlns:cc="http://creativecommons.org/ns#"
   xmlns:rdf="http://www.w3.org/1999/02/22-rdf-syntax-ns#"
   xmlns:svg="http://www.w3.org/2000/svg"
   xmlns="http://www.w3.org/2000/svg"
   xmlns:sodipodi="http://sodipodi.sourceforge.net/DTD/sodipodi-0.dtd"
   xmlns:inkscape="http://www.inkscape.org/namespaces/inkscape"
   width="744.09448819"
   height="1052.3622047"
   id="svg3045"
   version="1.1"
   inkscape:version="0.48.2 r9819"
   sodipodi:docname="hello.svg">
  <defs
     id="defs3047" />
  <sodipodi:namedview
     id="base"
     pagecolor="#ffffff"
     bordercolor="#666666"
     borderopacity="1.0"
     inkscape:pageopacity="0.0"
     inkscape:pageshadow="2"
     inkscape:zoom="0.55209129"
     inkscape:cx="372.04724"
     inkscape:cy="526.18109"
     inkscape:document-units="px"
     inkscape:current-layer="layer1"
     showgrid="false"
     inkscape:window-width="1440"
     inkscape:window-height="801"
     inkscape:window-x="0"
     inkscape:window-y="0"
     inkscape:window-maximized="1" />
  <metadata
     id="metadata3050">
    <rdf:RDF>
      <cc:Work
         rdf:about="">
        <dc:format>image/svg+xml</dc:format>
        <dc:type
           rdf:resource="http://purl.org/dc/dcmitype/StillImage" />
        <dc:title />
      </cc:Work>
    </rdf:RDF>
  </metadata>
  <g
     inkscape:label="Layer 1"
     inkscape:groupmode="layer"
     id="layer1">
    <g
       style="font-size:40px;font-style:normal;font-weight:normal;line-height:125%;letter-spacing:0px;word-spacing:0px;fill:#000000;fill-opacity:1;stroke:none;font-family:Sans"
       id="text2990"
       transform="matrix(4.7792548,0,0,7.5440322,-701.8821,-2376.0387)">
      <path
         d="M 165.09375 383.4375 L 165.09375 602.90625 L 183.625 602.90625 L 183.625 495.40625 L 252.9375 495.40625 L 252.9375 602.90625 L 271.4375 602.90625 L 271.4375 383.4375 L 252.9375 383.4375 L 252.9375 469.46875 L 183.625 469.46875 L 183.625 383.4375 L 165.09375 383.4375 z "
         transform="matrix(0.20923764,0,0,0.13255511,146.86015,314.95607)"
         id="path2995" />
      <path
         d="M 350.75 433.65625 C 335.56588 433.6564 323.33446 441.62272 314 457.4375 C 304.72772 473.25258 300.125 494.64773 300.125 521.5625 C 300.125 548.77216 304.88589 569.69863 314.59375 584.53125 C 324.30156 599.26565 337.9188 606.6875 355.21875 606.6875 C 362.00176 606.6875 368.49541 605.33968 374.65625 602.6875 C 380.81695 600.03532 386.80681 596.71041 392.71875 592.78125 L 392.71875 562.59375 L 391.8125 562.59375 C 388.76314 566.91588 383.65604 571.294 376.4375 575.8125 C 369.28095 580.23293 362.03163 582.40625 354.9375 582.40625 C 349.58564 582.40625 344.76175 581.23251 340.28125 578.875 C 335.86288 576.51749 332.01714 572.9651 328.78125 568.25 C 325.42081 563.43683 322.8041 557.3405 320.875 549.875 C 318.94585 542.31143 317.90625 533.58643 317.90625 523.46875 L 394.8125 523.46875 L 394.8125 508.375 C 394.8124 484.50538 390.96667 466.18521 383.3125 453.21875 C 375.72037 440.25267 364.81391 433.6564 350.75 433.65625 z M 349.84375 456.5 C 359.17816 456.50015 366.08213 460.57486 370.625 468.53125 C 375.22991 476.48802 377.56287 487.71212 377.625 502.25 L 317.90625 502.25 C 318.65301 489.28377 321.77401 478.4613 327.3125 469.71875 C 332.91317 460.9765 340.44697 456.50015 349.84375 456.5 z "
         transform="matrix(0.20923764,0,0,0.13255511,146.86015,314.95607)"
         id="path2997" />
      <path
         d="M 421.53125 373.53125 L 421.53125 602.90625 L 439.15625 602.90625 L 439.15625 373.53125 L 421.53125 373.53125 z "
         transform="matrix(0.20923764,0,0,0.13255511,146.86015,314.95607)"
         id="path2999" />
      <path
         d="M 473.53125 373.53125 L 473.53125 602.90625 L 491 602.90625 L 491 373.53125 L 473.53125 373.53125 z "
         transform="matrix(0.20923764,0,0,0.13255511,146.86015,314.95607)"
         id="path3001" />
      <path
         d="M 565.96875 433.65625 C 551.22026 433.6564 539.4309 441.35042 530.71875 456.96875 C 522.06878 472.48916 517.71875 493.80838 517.71875 520.625 C 517.71875 547.4417 522.06878 568.54231 530.71875 584.0625 C 539.4309 599.58284 551.22026 607.375 565.96875 607.375 C 580.5927 607.375 592.194 599.58284 600.90625 584.0625 C 609.61835 568.54231 614.0624 547.4417 614.0625 520.625 C 614.0624 493.80838 609.61835 472.48916 600.90625 456.96875 C 592.194 441.35042 580.5927 433.6564 565.96875 433.65625 z M 565.96875 457.4375 C 575.36543 457.43765 582.61662 462.8378 587.90625 473.25 C 593.19569 483.56428 595.96865 499.30926 595.96875 520.625 C 595.96865 541.4497 593.25792 557.17245 587.90625 567.78125 C 582.61662 578.29182 575.30316 583.59375 565.96875 583.59375 C 556.50979 583.59375 549.16449 578.17137 543.875 567.5625 C 538.58542 556.85556 535.9375 541.25325 535.9375 520.625 C 535.9375 499.30926 538.49139 483.56428 543.71875 473.25 C 549.00824 462.8378 556.44757 457.43765 565.96875 457.4375 z "
         transform="matrix(0.20923764,0,0,0.13255511,146.86015,314.95607)"
         id="path3003" />
    </g>
  </g>
</svg>
